<?xml version="1.0" encoding="UTF-8"?>
<svg version="1.1" xmlns="http://www.w3.org/2000/svg" width="500" height="500">
<path d="M0 0 C165 0 330 0 500 0 C500 165 500 330 500 500 C335 500 170 500 0 500 C0 335 0 170 0 0 Z " fill="#2F3277" transform="translate(0,0)"/>
<path d="M0 0 C2.68124679 2.14867037 5.21937833 4.37459012 7.7265625 6.72265625 C8.34402344 7.26148438 8.96148437 7.8003125 9.59765625 8.35546875 C23.03780817 20.70923426 31.59961118 38.78667863 39.1015625 55.09765625 C39.51857422 56.00064453 39.93558594 56.90363281 40.36523438 57.83398438 C42.68291433 62.98732497 44.54367904 68.10056554 46.08740234 73.53515625 C46.84118059 76.11493207 47.79681093 78.56437994 48.8515625 81.03515625 C50.22581307 84.25772056 51.12718366 87.26705374 51.7265625 90.72265625 C52.0565625 90.72265625 52.3865625 90.72265625 52.7265625 90.72265625 C52.90195557 89.85503662 53.07734863 88.98741699 53.25805664 88.09350586 C56.71474495 71.03849462 60.27428812 54.01937936 64.15698242 37.05566406 C65.63460418 30.58976188 67.08466041 24.12012965 68.46484375 17.6328125 C68.60404739 16.97855286 68.74325104 16.32429321 68.88667297 15.65020752 C69.54981896 12.52643124 70.20790221 9.40165225 70.86157227 6.27587891 C71.09287842 5.17937012 71.32418457 4.08286133 71.5625 2.953125 C71.76407715 1.98785889 71.9656543 1.02259277 72.17333984 0.02807617 C72.7265625 -2.27734375 72.7265625 -2.27734375 73.7265625 -4.27734375 C93.1965625 -4.27734375 112.6665625 -4.27734375 132.7265625 -4.27734375 C132.09612705 1.39657529 131.48539574 6.33080079 130.1953125 11.78125 C130.04417496 12.42868164 129.89303741 13.07611328 129.73731995 13.74316406 C129.41017605 15.14410242 129.08093591 16.54455264 128.74978638 17.94454956 C127.82092132 21.87785559 126.91221806 25.81581111 126.00390625 29.75390625 C125.81283798 30.58176132 125.62176971 31.40961639 125.4249115 32.26255798 C123.63233708 40.06522544 121.95917031 47.89119593 120.30404663 55.72396851 C115.8541326 76.77476477 111.18275856 97.77545424 106.48929977 118.77299881 C105.91885193 121.32621964 105.34922401 123.87962212 104.77981567 126.43307495 C103.86823659 130.52011469 102.95435547 134.60663348 102.03875351 138.69277382 C101.69979513 140.20662611 101.36145187 141.72061629 101.02380753 143.23476219 C99.0156345 152.23578303 96.89418379 161.19765768 94.62423706 170.13647461 C92.94177111 176.85787319 91.44306058 183.62212634 89.92773438 190.3828125 C88.79821531 195.35029952 87.60510723 200.22380168 86.04296875 205.07421875 C83.76152223 212.55616454 84.94642396 218.824392 86.8515625 226.22265625 C87.07602051 227.10050781 87.30047852 227.97835937 87.53173828 228.8828125 C91.61538176 244.30803902 97.97155242 264.08258195 112.1015625 273.09765625 C120.57473322 276.89597416 128.30467138 275.76598524 136.9609375 273.01171875 C142.88650204 270.50828257 146.77378727 266.3883874 149.7265625 260.72265625 C152.76078152 252.08239831 154.14843638 242.82814263 154.7265625 233.72265625 C159.0165625 233.72265625 163.3065625 233.72265625 167.7265625 233.72265625 C169.209861 261.37793277 162.83953674 290.16466534 144.7265625 311.72265625 C141.12291676 315.56560659 137.41906595 318.34847296 132.7265625 320.72265625 C131.5715625 321.32078125 130.4165625 321.91890625 129.2265625 322.53515625 C121.71550771 325.12312364 111.09186295 325.13189487 103.7265625 322.16015625 C101.66796875 321.015625 101.66796875 321.015625 99.7265625 319.72265625 C99.05496094 319.30628906 98.38335937 318.88992188 97.69140625 318.4609375 C79.3418168 304.99042964 74.68947337 270.37641524 70.7265625 249.72265625 C68.15093857 253.07250316 66.13228764 256.5121955 64.1015625 260.22265625 C48.39842981 288.15797147 22.88661154 310.18457103 -8.17773438 319.17138672 C-39.27552139 327.35158279 -74.65521036 326.64295328 -103.15625 310.54711914 C-135.34376985 291.58238231 -153.25316155 259.17339719 -162.72998047 223.88232422 C-164.23789527 217.88995478 -165.26845652 211.8157485 -166.2734375 205.72265625 C-166.46808594 204.624375 -166.66273438 203.52609375 -166.86328125 202.39453125 C-169.57688729 186.31096846 -169.51391888 169.98740253 -169.5234375 153.72265625 C-169.52411224 152.68118439 -169.52478699 151.63971252 -169.52548218 150.56668091 C-169.50989965 135.41158027 -169.19396789 120.64158029 -166.2734375 105.72265625 C-166.10183105 104.80419922 -165.93022461 103.88574219 -165.75341797 102.93945312 C-158.4331528 64.65688676 -139.58501566 28.72303591 -107.7109375 5.22265625 C-76.32014931 -15.83512678 -32.58376435 -22.66865706 0 0 Z " fill="#FDFDFE" transform="translate(319.2734375,163.27734375)"/>
<path d="M0 0 C0.89976562 -0.020625 1.79953125 -0.04125 2.7265625 -0.0625 C17.13391799 -0.14530089 28.10468581 6.01875328 38.44140625 15.7265625 C61.5962897 39.73628114 73.37281737 75.00467162 83.5625 106 C83.80637451 106.71865234 84.05024902 107.43730469 84.30151367 108.17773438 C87.60821192 118.67740496 85.0710268 128.55925847 82.875 139.0625 C82.55476922 140.61463121 82.23470427 142.16679665 81.91479492 143.71899414 C81.24585242 146.95177206 80.56927398 150.18284691 79.88818359 153.41308594 C79.22864435 156.54646598 78.58248134 159.68200306 77.95166016 162.82128906 C72.09249929 191.9601693 64.54851579 221.67748731 50.875 248.25 C50.56675293 248.86343262 50.25850586 249.47686523 49.94091797 250.10888672 C41.42186127 266.8432198 28.98221173 281.76923144 10.875 288.25 C-0.74199417 291.2361262 -12.63949893 289.93424532 -23.125 284.25 C-42.08500003 272.00056178 -51.21360962 248.40141092 -55.80834961 227.10083008 C-58.67925622 212.64619763 -59.91820146 197.92119407 -61.125 183.25 C-61.27074463 181.52426758 -61.27074463 181.52426758 -61.41943359 179.76367188 C-62.26415054 168.68074284 -62.36617113 157.61072654 -62.375 146.5 C-62.37633942 145.49842865 -62.37767883 144.4968573 -62.37905884 143.4649353 C-62.37362833 124.59316179 -61.32564889 105.98957321 -59.125 87.25 C-58.95677734 85.78989502 -58.95677734 85.78989502 -58.78515625 84.30029297 C-55.91812539 60.58977079 -49.98050546 34.7897052 -34.125 16.25 C-33.51140625 15.52554688 -32.8978125 14.80109375 -32.265625 14.0546875 C-23.07157707 4.06280896 -13.1854536 0.07366175 0 0 Z " fill="#363B90" transform="translate(276.125,176.75)"/>
</svg>
